<svg width="100" height="100" viewBox="0 0 100 100" fill="none" xmlns="http://www.w3.org/2000/svg">
<circle cx="50" cy="50" r="50" fill="#D9D9D9"/>
<path d="M17.7812 47.25C17.7812 48.0208 17.5234 48.638 17.0078 49.1016C16.4974 49.5599 15.8307 49.8516 15.0078 49.9766V50.0312C15.9974 50.151 16.7552 50.4479 17.2812 50.9219C17.8073 51.3906 18.0703 52.0052 18.0703 52.7656C18.0703 53.4323 17.8958 54.0208 17.5469 54.5312C17.1979 55.0417 16.6771 55.4401 15.9844 55.7266C15.2917 56.013 14.4323 56.1562 13.4062 56.1562C12.6615 56.1562 11.9818 56.1042 11.3672 56C10.7526 55.901 10.2057 55.7448 9.72656 55.5312V53.9062C10.0547 54.0625 10.4141 54.1979 10.8047 54.3125C11.2005 54.4219 11.6016 54.5078 12.0078 54.5703C12.4193 54.6276 12.8047 54.6562 13.1641 54.6562C14.1849 54.6562 14.9427 54.4844 15.4375 54.1406C15.9323 53.7969 16.1797 53.3099 16.1797 52.6797C16.1797 52.0339 15.8594 51.5625 15.2188 51.2656C14.5781 50.9688 13.7005 50.8203 12.5859 50.8203H11.2266V49.3203H12.5C13.3281 49.3203 13.9922 49.2474 14.4922 49.1016C14.9922 48.9557 15.3542 48.7474 15.5781 48.4766C15.8021 48.2057 15.9141 47.8828 15.9141 47.5078C15.9141 47.013 15.7161 46.6276 15.3203 46.3516C14.9297 46.0703 14.388 45.9297 13.6953 45.9297C13.0391 45.9297 12.4635 46.0182 11.9688 46.1953C11.474 46.3724 11.0026 46.6042 10.5547 46.8906L9.70312 45.6328C10.0521 45.3932 10.4323 45.1823 10.8438 45C11.2604 44.8177 11.7188 44.6745 12.2188 44.5703C12.7188 44.4661 13.2682 44.4141 13.8672 44.4141C14.7005 44.4141 15.4062 44.5365 15.9844 44.7812C16.5677 45.0208 17.013 45.3542 17.3203 45.7812C17.6276 46.2083 17.7812 46.6979 17.7812 47.25ZM23.5625 47.1875C24.6562 47.1875 25.4818 47.4297 26.0391 47.9141C26.6016 48.3984 26.8828 49.1536 26.8828 50.1797V56H25.5781L25.2266 54.7734H25.1641C24.9193 55.0859 24.6667 55.3438 24.4062 55.5469C24.1458 55.75 23.8438 55.901 23.5 56C23.1615 56.1042 22.7474 56.1562 22.2578 56.1562C21.7422 56.1562 21.2812 56.0625 20.875 55.875C20.4688 55.6823 20.1484 55.3906 19.9141 55C19.6797 54.6094 19.5625 54.1146 19.5625 53.5156C19.5625 52.625 19.8932 51.9557 20.5547 51.5078C21.2214 51.0599 22.2266 50.8125 23.5703 50.7656L25.0703 50.7109V50.2578C25.0703 49.6589 24.9297 49.2318 24.6484 48.9766C24.3724 48.7214 23.9818 48.5938 23.4766 48.5938C23.0443 48.5938 22.625 48.6562 22.2188 48.7812C21.8125 48.9062 21.4167 49.0599 21.0312 49.2422L20.4375 47.9453C20.8594 47.7214 21.3385 47.5391 21.875 47.3984C22.4167 47.2578 22.9792 47.1875 23.5625 47.1875ZM25.0625 51.8672L23.9453 51.9062C23.0286 51.9375 22.3854 52.0938 22.0156 52.375C21.6458 52.6562 21.4609 53.0417 21.4609 53.5312C21.4609 53.9583 21.5885 54.2708 21.8438 54.4688C22.099 54.6615 22.4349 54.7578 22.8516 54.7578C23.487 54.7578 24.013 54.5781 24.4297 54.2188C24.8516 53.8542 25.0625 53.3203 25.0625 52.6172V51.8672ZM35.0625 47.3516V48.7969H31.2969V56H29.4531V47.3516H35.0625ZM41.1719 47.1875C42.1979 47.1875 43.0208 47.5625 43.6406 48.3125C44.2656 49.0625 44.5781 50.1771 44.5781 51.6562C44.5781 52.6354 44.4323 53.4609 44.1406 54.1328C43.8542 54.7995 43.4505 55.3047 42.9297 55.6484C42.4141 55.987 41.8125 56.1562 41.125 56.1562C40.6875 56.1562 40.3073 56.099 39.9844 55.9844C39.6615 55.8698 39.3854 55.7214 39.1562 55.5391C38.9271 55.3516 38.7344 55.1484 38.5781 54.9297H38.4688C38.4948 55.138 38.5182 55.3698 38.5391 55.625C38.5651 55.875 38.5781 56.1042 38.5781 56.3125V59.8359H36.7344V47.3516H38.2344L38.4922 48.5469H38.5781C38.7396 48.3021 38.9349 48.0755 39.1641 47.8672C39.3984 47.6589 39.6797 47.4948 40.0078 47.375C40.3411 47.25 40.7292 47.1875 41.1719 47.1875ZM40.6797 48.6875C40.1745 48.6875 39.7682 48.7891 39.4609 48.9922C39.1589 49.1901 38.9375 49.4896 38.7969 49.8906C38.6615 50.2917 38.5885 50.7943 38.5781 51.3984V51.6562C38.5781 52.2969 38.6432 52.8411 38.7734 53.2891C38.9089 53.7318 39.1302 54.0703 39.4375 54.3047C39.75 54.5339 40.1719 54.6484 40.7031 54.6484C41.151 54.6484 41.5208 54.526 41.8125 54.2812C42.1094 54.0365 42.3307 53.6875 42.4766 53.2344C42.6224 52.7812 42.6953 52.2474 42.6953 51.6328C42.6953 50.7005 42.5286 49.9766 42.1953 49.4609C41.8672 48.9453 41.362 48.6875 40.6797 48.6875ZM45.3984 47.3516H47.3984L49.1719 52.2891C49.25 52.513 49.3203 52.7344 49.3828 52.9531C49.4505 53.1667 49.5078 53.3776 49.5547 53.5859C49.6068 53.7943 49.6484 54.0026 49.6797 54.2109H49.7266C49.7786 53.9401 49.8516 53.638 49.9453 53.3047C50.0443 52.9661 50.1536 52.6276 50.2734 52.2891L51.9766 47.3516H53.9531L50.2422 57.1875C50.0286 57.75 49.7656 58.2292 49.4531 58.625C49.1458 59.026 48.7812 59.3281 48.3594 59.5312C47.9375 59.7396 47.4557 59.8438 46.9141 59.8438C46.6536 59.8438 46.4271 59.8281 46.2344 59.7969C46.0417 59.7708 45.8776 59.7422 45.7422 59.7109V58.2422C45.8516 58.2682 45.9896 58.2917 46.1562 58.3125C46.3229 58.3333 46.4948 58.3438 46.6719 58.3438C47 58.3438 47.2839 58.2786 47.5234 58.1484C47.763 58.0182 47.9661 57.8333 48.1328 57.5938C48.2995 57.3594 48.4375 57.0911 48.5469 56.7891L48.8516 55.9766L45.3984 47.3516ZM57.9531 47.1875C58.5885 47.1875 59.1589 47.2734 59.6641 47.4453C60.1745 47.612 60.5781 47.8646 60.875 48.2031C61.1719 48.5417 61.3203 48.9635 61.3203 49.4688C61.3203 49.9896 61.1693 50.4062 60.8672 50.7188C60.5703 51.026 60.1667 51.2474 59.6562 51.3828V51.4531C60.0156 51.5417 60.3411 51.6693 60.6328 51.8359C60.9245 51.9974 61.1562 52.2161 61.3281 52.4922C61.5052 52.763 61.5938 53.112 61.5938 53.5391C61.5938 54.0234 61.4505 54.4635 61.1641 54.8594C60.8828 55.2552 60.4505 55.5703 59.8672 55.8047C59.2839 56.0391 58.5417 56.1562 57.6406 56.1562C57.2083 56.1562 56.7969 56.1328 56.4062 56.0859C56.0208 56.0443 55.6693 55.9844 55.3516 55.9062C55.0339 55.8229 54.7578 55.724 54.5234 55.6094V54.0312C54.8828 54.2031 55.3177 54.3594 55.8281 54.5C56.3385 54.6354 56.8854 54.7031 57.4688 54.7031C57.901 54.7031 58.2917 54.6641 58.6406 54.5859C58.9948 54.5026 59.2734 54.3672 59.4766 54.1797C59.6849 53.9922 59.7891 53.7422 59.7891 53.4297C59.7891 53.1432 59.6979 52.9062 59.5156 52.7188C59.3333 52.5312 59.0599 52.3932 58.6953 52.3047C58.3307 52.2109 57.8698 52.1641 57.3125 52.1641H56.2812V50.8125H57.1875C57.9531 50.8125 58.5521 50.7292 58.9844 50.5625C59.4219 50.3906 59.6406 50.0938 59.6406 49.6719C59.6406 49.3177 59.487 49.0521 59.1797 48.875C58.8724 48.6979 58.401 48.6094 57.7656 48.6094C57.3281 48.6094 56.8958 48.6589 56.4688 48.7578C56.0417 48.8516 55.6146 48.987 55.1875 49.1641L54.6094 47.8125C55.0833 47.6198 55.5911 47.4688 56.1328 47.3594C56.6745 47.2448 57.2812 47.1875 57.9531 47.1875ZM65.3438 47.3516V51.7656C65.3438 51.9062 65.3385 52.0859 65.3281 52.3047C65.3229 52.5182 65.3125 52.7422 65.2969 52.9766C65.2812 53.2057 65.2656 53.4167 65.25 53.6094C65.2344 53.8021 65.2214 53.9453 65.2109 54.0391L69.5625 47.3516H71.7969V56H70.0391V51.6328C70.0391 51.4036 70.0443 51.138 70.0547 50.8359C70.0703 50.5339 70.0859 50.2422 70.1016 49.9609C70.1224 49.6797 70.1354 49.4661 70.1406 49.3203L65.8047 56H63.5781V47.3516H65.3438ZM80.9688 48.7969H78.125V56H76.2969V48.7969H73.4688V47.3516H80.9688V48.7969ZM84.4844 50.8047H86.6328C87.4453 50.8047 88.1172 50.8984 88.6484 51.0859C89.1849 51.2682 89.5859 51.5443 89.8516 51.9141C90.1172 52.2839 90.25 52.7474 90.25 53.3047C90.25 53.8516 90.125 54.3281 89.875 54.7344C89.625 55.1354 89.2344 55.4479 88.7031 55.6719C88.1771 55.8906 87.4896 56 86.6406 56H82.6406V47.3516H84.4844V50.8047ZM88.4062 53.3516C88.4062 52.9193 88.2448 52.6146 87.9219 52.4375C87.599 52.2552 87.138 52.1641 86.5391 52.1641H84.4844V54.6484H86.5547C87.1016 54.6484 87.5469 54.5495 87.8906 54.3516C88.2344 54.1484 88.4062 53.8151 88.4062 53.3516Z" fill="#0A2640" fill-opacity="0.5"/>
</svg>
